<svg xmlns="http://www.w3.org/2000/svg" width="25" height="25" viewBox="0 0 25 25">
  <g fill="#bb151b">
    <path d="M12.44.25a12.25 12.25 0 0 0-12.2 12.3 12.25 12.25 0 0 0 12.28 12.2A12.25 12.25 0 0 0 24.75 12.5v-.1A12.25 12.25 0 0 0 12.45.26zm0 1.53a10.72 10.72 0 0 1 10.78 10.65v.07a10.72 10.72 0 0 1-10.7 10.72A10.72 10.72 0 0 1 1.78 12.54 10.72 10.72 0 0 1 12.44 1.78z"/>
    <path d="M13.27 12.2c-.02-2.5.02-5-.02-7.5-.24-1.05-1.8-.56-1.52.42.02 2.54-.02 5.08.03 7.6.46.75 1.22 1.3 1.8 1.94.84.8 1.62 1.66 2.48 2.4.97.38 1.43-1.06.6-1.5l-3.37-3.37z"/>
  </g>
</svg>
