<svg xmlns="http://www.w3.org/2000/svg" viewBox="0 0 247.33 45.32">
  <g fill="#eee">
    <path d="M43.7 26.8v17.98H7.72v-18h6v12H37.7v-12h6zm6 .65L25.7 8.9C17.73 15.1 9.74 21.28 1.75 27.46v-7.6c8-6.2 15.98-12.4 23.97-18.62l24 18.63v7.6z"/>
    <path d="M68.78 41.87l3.63-1.02c.5-9.78.9-19.56 1.4-29.34l-4.2-.7c-.3-.7.2-1.5.2-2.2.4-.3 1.4 0 2-.1h6.6l12.2 27.7 11.3-27.8h9c.8.4.1 1.2.1 1.9.1.9-1 .6-1.6.8-.9.2-1.9.3-2.8.5.4 9.8.8 19.5 1.3 29.3l4 .8c.3.7-.2 1.5-.2 2.2H99.8c-.26-.6.14-1.4.14-2l3.38-1-1.12-26.1c-3.76 9-7.46 18-11.26 27-.8 1.2-2.37 1.4-2.57-.2-4-8.7-8.02-17.5-12.04-26.2-.33 8.5-.7 17.1-1.05 25.6l3.38.8c.36.7-.15 1.5-.17 2.3h-9.8c-.3-.6.1-1.4.1-2zm55.14 0l3.63-1.02 1.34-29.34-4.3-.7c-.4-.7.1-1.5.1-2.2.4-.3 1.3 0 1.9-.1h6.6l12.3 27.8 11.3-27.8h9c.7.4 0 1.2 0 1.9 0 .9-1.1.6-1.7.8-1 .2-1.9.3-2.9.5l1.4 29.3 4 .8c.3.7-.2 1.5-.2 2.3h-11.7c-.3-.6.1-1.3.1-2l3.4-1-1.1-26.1c-3.8 9-7.5 18-11.3 27-.8 1.2-2.4 1.4-2.6-.2l-12.1-26.3c-.38 8.6-.7 17.1-1.1 25.6l3.4.8c.35.7-.16 1.5-.18 2.3h-9.8c-.3-.6.1-1.4.1-2.1zm57.1-7.67c1.46-.33 2.3.6 1.9 2-.2 1.66.5 3.05 2.04 3.7 2.9 1.8 6.65 2.65 9.9 1.36 2.55-1.1 3.5-4.35 2.7-6.85-1.05-2.4-3.62-3.7-5.87-4.9-3.2-1.6-6.6-2.9-9.1-5.5-1.8-1.7-2.8-4.1-2.5-6.6.1-4.2 3.6-7.8 7.6-8.8 4.6-1.1 9.5 0 13.5 2.4l-1.7 7.4c-1.6.4-2.1-.7-1.9-2.1.2-1.7-.7-3-2.3-3.6-2.4-1.2-5.3-1.7-8-1.2-2.4.6-3.8 3.2-3.4 5.6.2 2.5 2.4 4.1 4.4 5.3 3.5 2 7.5 3.4 10.5 6.2 1.9 1.9 3.1 4.5 2.9 7.3-.2 3.8-2.9 7.1-6.5 8.3-3.8 1.3-7.9 1.2-11.7.18-1.6-.5-3.2-1.2-4.4-2.3l1.6-7.5zm34.14 2.1c-3.16-5.53-2.78-12.55-.18-18.22 2.56-5.7 8.42-9.73 14.68-10 4.72-.18 9.63.5 13.8 2.83l-1.72 7.3c-1.68.5-2.22-.8-2-2.2.02-1.3-.26-2.7-1.78-3.1-3.13-1.2-6.55-1.6-9.9-1.5-4.72.4-8.32 4.5-9.5 8.9-1.42 5.4-1.06 11.7 2.5 16.2 2.66 3.6 7.2 5.8 11.67 5.1 2.5-.3 5.04-1.1 7-2.7v-8.3c-2.44-.2-4.9-.5-7.34-.7v-2.2h12.9c-.1.7.1 1.4-.1 2-.5.4-1.3.5-1.1 1.3v9.4c-4.1 3.6-9.8 4.5-15 4.5-5.8-.2-11.3-3.4-14.1-8.4z"/>
  </g>
</svg>
