<svg xmlns="http://www.w3.org/2000/svg" viewBox="0 0 25.55 23.44">
  <g stroke-width=".5" stroke-miterlimit="10">
    <path fill="#bb151b" stroke="#bb151b" d="M678.98 361.1c0-11.3-1.5-22.24-4.3-32.65l-67.02.1c-14.33 0-33.47 1.16-52.25-16.76L451.3 208.1c-3.56-3.7-5.5-8.56-5.5-13.68 0-10.86 8.8-19.7 19.64-19.7 4.67 0 9.23 1.68 12.8 4.7l53.58 50.02c3.8 3.25 10.94 8.74 19.73 11.46 4.55 1.47 9 1.9 14.1 1.98v-16.1c-3.64-.08-6.55-.34-9.26-1.2-5.1-1.58-9.6-4.72-12.6-7.1L488 167.73c-6.43-6.4-14.77-9.9-23.53-9.9-13.16 0-25.27 7.92-31.24 21h-95.7c-13.6 0-24.64-11.1-24.64-24.76 0-13.62 11-24.64 24.6-24.64h131.1c18.1 0 35.6 6.52 49.3 18.23l64.12 60.4c.5-4.4.7-8.87.7-13.4 0-69.18-56.05-125.25-125.2-125.25-38.6 0-73.14 17.5-96.1 45-23-27.4-57.5-44.9-96.1-44.9-69.2 0-125.26 56.1-125.26 125.3 0 15.16 2.62 29.67 7.52 43.1C88.8 248 44 299.38 44 361.18c0 10.32 1.27 20.34 3.62 29.93h90.63c14.32 0 33.45-1.2 52.23 16.74L294.7 511.4c3.58 3.7 5.5 8.54 5.5 13.68 0 10.84-8.8 19.67-19.62 19.67-4.68 0-9.23-1.65-12.8-4.68l-53.6-50c-3.78-3.28-10.94-8.75-19.7-11.47-4.57-1.47-9.02-1.9-14.12-1.98v16.1c3.63.07 6.55.33 9.26 1.2 5.06 1.57 9.6 4.7 12.54 7.07l55.72 50.7c6.43 6.4 14.78 9.9 23.54 9.9 13.14 0 25.25-7.9 31.23-21h95.7c13.6 0 24.64 11.1 24.64 24.7S421.9 590 408.3 590h-131c-18.14 0-35.63-6.5-49.3-18.2l-83.13-78.27c-3.05 10.8-4.68 22.2-4.68 33.97 0 69.18 56 125.25 125.2 125.25 38.6 0 73.1-17.48 96.1-44.95 22.9 27.47 57.5 44.94 96.1 44.94 69.1 0 125.2-56.08 125.2-125.26 0-15.1-2.7-29.6-7.6-43.04 58.9-10.2 103.7-61.58 103.7-123.4zM210.83 196.07c14.34-.03 25.97 11.6 25.97 25.97 0 14.33-11.63 25.94-25.97 25.97-14.35 0-25.97-11.6-25.96-25.9 0-14.3 11.6-26 25.96-25.9zm-19.4 180.63l-24.6-25.55c-5.26-5.4-6.7-15.34-1.05-20.96 0-.1 17.52-17.7 17.52-17.7l20.65 20.6-15.12 15.1 15.54 15.5c9.14 9.15-3.5 22.25-12.93 12.82zm63-25.55L229.9 376.7c-9.46 9.43-22.1-3.67-12.9-12.82l15.52-15.55-15.22-15.1 20.65-20.66s17.56 17.58 17.63 17.62c5.6 5.6 4.16 15.5-1.15 20.9zm5.22-47.24l-21.6-21.5v20.1H183.3v-20l-20.96 21.2c-9.5 9.5-22.36-2.65-12.83-12.2l34.8-34.83c2.9-2.77 5.9-4.55 10.9-4.6h31.2c4.9.05 8.2 1.77 11.1 4.6l35.16 35.25c9 9.03-4.2 21.3-12.85 12.1zm94.53-108.4c14.4 0 26.1 11.7 26.1 26.1 0 14.4-11.7 26.1-26.1 26.1-14.4 0-26.07-11.7-26.07-26 0-14.4 11.7-26.1 26.1-26.1zM415.2 367c.04 15.68-20.4 15.68-20.4 0v-77.9h-6.42l-.07 211.43c0 8.08-6.5 14.63-14.6 14.63-8 0-14.6-6.54-14.6-14.62l.1-122.63h-6.5v122.7c0 8.1-6.5 14.7-14.6 14.7s-14.6-6.52-14.6-14.6V289.1H317V367c0 15.6-20.56 15.6-20.56 0v-80.1c0-18.8 11.57-33.85 30.03-33.85l58.46.03c20.26 0 30.43 16.97 30.43 34.3v79.56zm68.34-65c10.9 0 19.76 8.84 19.76 19.76 0 10.9-8.85 19.75-19.76 19.75-10.92 0-19.76-8.8-19.76-19.7 0-10.9 8.84-19.7 19.76-19.7zm74.4 244.33H547.5v-95.8c0-3.13-2.57-5.7-5.7-5.7-3.15 0-5.7 2.57-5.7 5.7h-10.5c0-8.36 6.4-15.26 14.56-16.07l-.25-.54-22.1-36.15-12.3 148.53v.03c0 5.1-4.1 9.24-9.2 9.24s-9.2-4.14-9.2-9.24V448h-7v98.33c0 5.1-4.1 9.24-9.2 9.24s-9.2-4.14-9.2-9.24l-7.53-91.3c-.4.06-.83.1-1.26.1-5.2 0-9.4-4.2-9.4-9.4l-5.13-62.1c0-17.88-2.47-37 45.33-37 12.92 0 33.02 3.8 33.3 3.84 2.3.5 4.22 2.1 5.2 4.24v.2l32.7 72.8h-.05c.5 1.1.8 2.2.8 3.5 0 2.9-1.5 5.4-3.75 6.8 3.77 3 6.17 7.6 6.17 12.7v95.8zm0 0" transform="matrix(.0402 0 0 .04015 -1.763 -2.777)"/>
    <path fill="#bb151b" stroke="#bb151b" d="M678.98 361.1c0-11.3-1.5-22.24-4.3-32.65l-67.02.1c-14.33 0-33.47 1.16-52.25-16.76L451.3 208.1c-3.56-3.7-5.5-8.56-5.5-13.68 0-10.86 8.8-19.7 19.64-19.7 4.67 0 9.23 1.68 12.8 4.7l53.58 50.02c3.8 3.25 10.94 8.74 19.73 11.46 4.55 1.47 9 1.9 14.1 1.98v-16.1c-3.64-.08-6.55-.34-9.26-1.2-5.1-1.58-9.6-4.72-12.6-7.1L488 167.73c-6.43-6.4-14.77-9.9-23.53-9.9-13.16 0-25.27 7.92-31.24 21h-95.7c-13.6 0-24.64-11.1-24.64-24.76 0-13.62 11-24.64 24.6-24.64h131.1c18.1 0 35.6 6.52 49.3 18.23l64.12 60.4c.5-4.4.7-8.87.7-13.4 0-69.18-56.05-125.25-125.2-125.25-38.6 0-73.14 17.5-96.1 45-23-27.4-57.5-44.9-96.1-44.9-69.2 0-125.26 56.1-125.26 125.3 0 15.16 2.62 29.67 7.52 43.1C88.8 248 44 299.38 44 361.18c0 10.32 1.27 20.34 3.62 29.93h90.63c14.32 0 33.45-1.2 52.23 16.74L294.7 511.4c3.58 3.7 5.5 8.54 5.5 13.68 0 10.84-8.8 19.67-19.62 19.67-4.68 0-9.23-1.65-12.8-4.68l-53.6-50c-3.78-3.28-10.94-8.75-19.7-11.47-4.57-1.47-9.02-1.9-14.12-1.98v16.1c3.63.07 6.55.33 9.26 1.2 5.06 1.57 9.6 4.7 12.54 7.07l55.72 50.7c6.43 6.4 14.78 9.9 23.54 9.9 13.14 0 25.25-7.9 31.23-21h95.7c13.6 0 24.64 11.1 24.64 24.7S421.9 590 408.3 590h-131c-18.14 0-35.63-6.5-49.3-18.2l-83.13-78.27c-3.05 10.8-4.68 22.2-4.68 33.97 0 69.18 56 125.25 125.2 125.25 38.6 0 73.1-17.48 96.1-44.95 22.9 27.47 57.5 44.94 96.1 44.94 69.1 0 125.2-56.08 125.2-125.26 0-15.1-2.7-29.6-7.6-43.04 58.9-10.2 103.7-61.58 103.7-123.4zM210.83 196.07c14.34-.03 25.97 11.6 25.97 25.97 0 14.33-11.63 25.94-25.97 25.97-14.35 0-25.97-11.6-25.96-25.9 0-14.3 11.6-26 25.96-25.9zm-19.4 180.63l-24.6-25.55c-5.26-5.4-6.7-15.34-1.05-20.96 0-.1 17.52-17.7 17.52-17.7l20.65 20.6-15.12 15.1 15.54 15.5c9.14 9.15-3.5 22.25-12.93 12.82zm63-25.55L229.9 376.7c-9.46 9.43-22.1-3.67-12.9-12.82l15.52-15.55-15.22-15.1 20.65-20.66s17.56 17.58 17.63 17.62c5.6 5.6 4.16 15.5-1.15 20.9zm5.22-47.24l-21.6-21.5v20.1H183.3v-20l-20.96 21.2c-9.5 9.5-22.36-2.65-12.83-12.2l34.8-34.83c2.9-2.77 5.9-4.55 10.9-4.6h31.2c4.9.05 8.2 1.77 11.1 4.6l35.16 35.25c9 9.03-4.2 21.3-12.85 12.1zm94.53-108.4c14.4 0 26.1 11.7 26.1 26.1 0 14.4-11.7 26.1-26.1 26.1-14.4 0-26.07-11.7-26.07-26 0-14.4 11.7-26.1 26.1-26.1zM415.2 367c.04 15.68-20.4 15.68-20.4 0v-77.9h-6.42l-.07 211.43c0 8.08-6.5 14.63-14.6 14.63-8 0-14.6-6.54-14.6-14.62l.1-122.63h-6.5v122.7c0 8.1-6.5 14.7-14.6 14.7s-14.6-6.52-14.6-14.6V289.1H317V367c0 15.6-20.56 15.6-20.56 0v-80.1c0-18.8 11.57-33.85 30.03-33.85l58.46.03c20.26 0 30.43 16.97 30.43 34.3v79.56zm68.34-65c10.9 0 19.76 8.84 19.76 19.76 0 10.9-8.85 19.75-19.76 19.75-10.92 0-19.76-8.8-19.76-19.7 0-10.9 8.84-19.7 19.76-19.7zm74.4 244.33H547.5v-95.8c0-3.13-2.57-5.7-5.7-5.7-3.15 0-5.7 2.57-5.7 5.7h-10.5c0-8.36 6.4-15.26 14.56-16.07l-.25-.54-22.1-36.15-12.3 148.53v.03c0 5.1-4.1 9.24-9.2 9.24s-9.2-4.14-9.2-9.24V448h-7v98.33c0 5.1-4.1 9.24-9.2 9.24s-9.2-4.14-9.2-9.24l-7.53-91.3c-.4.06-.83.1-1.26.1-5.2 0-9.4-4.2-9.4-9.4l-5.13-62.1c0-17.88-2.47-37 45.33-37 12.92 0 33.02 3.8 33.3 3.84 2.3.5 4.22 2.1 5.2 4.24v.2l32.7 72.8h-.05c.5 1.1.8 2.2.8 3.5 0 2.9-1.5 5.4-3.75 6.8 3.77 3 6.17 7.6 6.17 12.7v95.8zm0 0" transform="matrix(.0402 0 0 .04015 -1.763 -2.777)"/>
  </g>
</svg>
