<svg xmlns="http://www.w3.org/2000/svg" viewBox="0 0 155 155">
  <path fill="#bb151b" d="M60.16 127.28v-9.25h36.98v18.5h-7.82c-7.4 0-7.82-.2-7.82-3.56 0-2.6-.76-3.56-2.85-3.56-2.08 0-2.84 1-2.84 3.6 0 3.4-.4 3.6-7.8 3.6h-7.8zm-12.5-1c-.95-.94-1.72-3.18-1.72-4.98 0-2.86.7-3.27 5.7-3.27 4.98 0 5.68.4 5.68 3.27 0 3.8-2.45 6.7-5.7 6.7-1.24 0-3.03-.78-3.97-1.72zm55.46 0c-.94-.94-1.7-3.18-1.7-4.98 0-2.86.7-3.27 5.68-3.27 5 0 5.7.4 5.7 3.27 0 3.8-2.46 6.7-5.7 6.7-1.25 0-3.05-.78-3.98-1.72zm-65.7-38.1v-24.2h82.48v48.36H37.4zm69.68 0V68.25H50.2v39.82h56.9zm-41.8 14.8c-2.24-5.83-1.07-7.7 4.82-7.7 3.13 0 5.7-.64 5.7-1.42 0-.8-2.57-1.43-5.7-1.43-3.13 0-5.7-.64-5.7-1.42 0-.7 2.57-1.4 5.7-1.4 3.13 0 5.7-.6 5.7-1.4 0-.8-2.9-1.4-6.4-1.4-3.53 0-6.4-.6-6.4-1.4 0-.8 2.87-1.4 6.4-1.4 3.5 0 6.4-.62 6.4-1.4 0-.8-2.57-1.42-5.7-1.42-3.13 0-5.7-.64-5.7-1.43 0-.8 2.57-1.42 5.7-1.42 3.13 0 5.7-.62 5.7-1.4 0-.8-2.25-1.42-5-1.42-2.73 0-4.93-.54-4.97-1.22-.06-1.22 7.57-2 10-2.15-.07-2.34 5.84-2.37 5.9-.1 1.43.2 9.55.4 9.58 2.37-.04.62-1.58 1.1-4.85 1.1-2.74 0-4.98.65-4.98 1.43 0 .8 2.56 1.4 5.7 1.4 3.12 0 5.68.67 5.68 1.45 0 .8-2.56 1.44-5.7 1.44-3.12 0-5.68.64-5.68 1.42 0 .78 2.88 1.4 6.4 1.4 3.52 0 6.4.66 6.4 1.44 0 .77-2.88 1.4-6.4 1.4-3.52 0-6.4.65-6.4 1.44 0 .8 2.56 1.43 5.7 1.43 3.12 0 5.68.6 5.68 1.4 0 .8-2.56 1.4-5.7 1.4-3.12 0-5.68.66-5.68 1.45 0 .8 2.56 1.44 5.7 1.44 4.65 0 5.68.5 5.68 2.7 0 7.83-3.86 9.36-8.37 3.3l-2.9-3.9v3.9c0 2.96-.7 3.9-2.9 3.9-2.1 0-2.8-.94-2.9-3.9v-3.9l-2.9 3.9c-3.26 4.4-6.2 5.05-7.5 1.67zm-14-47.57l4.64-4.2h44l4.65 4.2 4.6 4.3H46.6zm17.3-12.6c-9.17-9.2-2.9-24.3 10.05-24.3 12.96 0 19.23 15.1 10.07 24.3-5.86 5.9-14.28 5.9-20.13 0z"/>
</svg>
