<svg xmlns="http://www.w3.org/2000/svg" version="1" viewBox="0 0 155 155">
  <g fill="#bb151b" transform="translate(-20 -20) scale(.32637)">
    <path d="M164 285c6 19 14 38 19 59 5 20 9 40 11 61 1 8-2 15 0 23a48 48 0 0 0 9 24 45 45 0 0 0 53 14 48 48 0 0 0 28-43c0-24-18-39-33-55-8-9-16-19-21-30a46 46 0 0 1-2-36c5-11 15-18 24-25a89 89 0 0 0 23-26c10-16 15-39 3-55-7-9-19-14-33-14-24 0-47 14-65 29a60 60 0 0 0-18 23 68 68 0 0 0 0 43zm81-130c-1 14 7 22 16 22 10 0 18-8 18-22 0-13-8-24-17-24s-17 10-17 24z"/>
    <ellipse cx="226" cy="158" rx="12" ry="15" transform="rotate(-175 226 158) scale(1.00001)"/>
    <ellipse cx="201" cy="171" rx="9" ry="12" transform="rotate(-179 201 171) scale(.99999)"/>
    <ellipse cx="181" cy="186" rx="8" ry="10" transform="rotate(166 181 186)"/>
    <path d="M158 203c1 6 5 9 8 8 4-1 6-6 5-11-1-6-5-9-9-8s-6 6-4 11zm278 82c-6 19-14 38-19 59-5 20-10 40-11 61v23a48 48 0 0 1-10 24 45 45 0 0 1-52 14 48 48 0 0 1-28-43c0-24 18-39 33-55 8-9 16-19 21-30a46 46 0 0 0 2-36c-5-11-15-18-24-25a89 89 0 0 1-23-26c-10-16-15-39-3-55 7-9 19-14 33-14 24 0 47 14 65 29a60 60 0 0 1 18 23 68 68 0 0 1 0 43zm-81-130c0 14-7 22-17 22-9 0-17-8-17-22 0-13 8-24 17-24s17 10 17 24z"/>
    <ellipse cx="374" cy="158" rx="12" ry="15" transform="rotate(-5 374 158) scale(1.00001)"/>
    <ellipse cx="399" cy="171" rx="9" ry="12" transform="rotate(-1 399 171) scale(.99999)"/>
    <ellipse cx="419" cy="186" rx="8" ry="10" transform="rotate(14 419 186)"/>
    <path d="M442 203c-1 6-5 9-8 8-4-1-6-6-5-11 1-6 5-9 9-8 3 1 6 6 4 11z"/>
  </g>
</svg>