<svg xmlns="http://www.w3.org/2000/svg" width="25" height="25" viewBox="0 0 25 25">
  <path fill="#333" d="M19.42 23.33H1.67V4.03h10.85l1.57-1.5c-.8-.1-1.6 0-2.3-.04-3.5 0-6.9-.1-10.3 0-1 0-1.5 1.1-1.4 2v19c.05 1 1.1 1.5 2 1.34h17.5c.93-.08 1.5-1.07 1.36-1.96V12.1l-1.55 1.47v9.83zm4.22-22.17C22.5-.08 20.44-.12 19.2 1c-2.35 2.24-4.6 4.6-6.92 6.86-1.37 1.37-2.76 2.72-4.1 4.1-.56 2-1.23 3.97-1.76 5.97.04.9 1.1.67 1.62.38l4.87-1.5c1.4-1.25 2.7-2.62 4-3.9 2.4-2.4 4.8-4.7 7.1-7.1.93-1 1.2-2.6.4-3.72-.2-.33-.45-.64-.74-.9zm-1.06 3.86c-3.46 3.48-6.97 6.9-10.47 10.35-1.2.4-2.4.8-3.6 1.18.4-1.28.74-2.6 1.2-3.86 3.4-3.5 6.9-6.9 10.34-10.4.94-1.1 2.58-.6 3.16.6.46.7-.04 1.52-.57 2.03z"/>
</svg>
